<?xml version="1.0" encoding="UTF-8" standalone="no"?>
<svg
   width="100%"
   height="100%"
   viewBox="0 0 3247 1234"
   version="1.1"
   xml:space="preserve"
   style="fill-rule:evenodd;clip-rule:evenodd;stroke-linejoin:round;stroke-miterlimit:1.5;"
   id="svg94"
   sodipodi:docname="404.svg"
   inkscape:version="1.1.2 (b8e25be833, 2022-02-05)"
   xmlns:inkscape="http://www.inkscape.org/namespaces/inkscape"
   xmlns:sodipodi="http://sodipodi.sourceforge.net/DTD/sodipodi-0.dtd"
   xmlns="http://www.w3.org/2000/svg"
   xmlns:svg="http://www.w3.org/2000/svg"><defs
   id="defs98" /><sodipodi:namedview
   id="namedview96"
   pagecolor="#ffffff"
   bordercolor="#999999"
   borderopacity="1"
   inkscape:pageshadow="0"
   inkscape:pageopacity="0"
   inkscape:pagecheckerboard="0"
   showgrid="true"
   inkscape:snap-bbox="true"
   inkscape:bbox-paths="true"
   inkscape:bbox-nodes="true"
   inkscape:snap-bbox-edge-midpoints="true"
   inkscape:snap-bbox-midpoints="true"
   inkscape:zoom="0.29486375"
   inkscape:cx="1410.8211"
   inkscape:cy="632.49552"
   inkscape:window-width="1920"
   inkscape:window-height="1001"
   inkscape:window-x="-9"
   inkscape:window-y="-9"
   inkscape:window-maximized="1"
   inkscape:current-layer="svg94"><inkscape:grid
     type="xygrid"
     id="grid1021" /></sodipodi:namedview>
  <g
   transform="translate(-149.406,-1192.33)"
   id="g92">
    <g
   transform="translate(0,-0.0649902)"
   id="g8">
      <g
   transform="translate(-190.112,0.0649902)"
   id="g6">
        <g
   transform="matrix(1549.76,0,0,1549.76,285.034,2355.46)"
   id="g4">
          <path
   d="m 0.386,0 h 0.14 V -0.129 H 0.619 V -0.247 H 0.526 V -0.705 H 0.318 l -0.283,0.453 v 0.123 H 0.386 Z M 0.164,-0.243 v -0.004 l 0.221,-0.351 h 0.004 v 0.355 z"
   style="fill-rule:nonzero"
   id="path2" />
        </g>
      </g>
    </g>
    <g
   transform="translate(0,-0.0649902)"
   id="g16">
      <g
   transform="translate(2151.95,0.0649902)"
   id="g14">
        <g
   transform="matrix(1549.76,0,0,1549.76,285.034,2355.46)"
   id="g12">
          <path
   d="m 0.386,0 h 0.14 V -0.129 H 0.619 V -0.247 H 0.526 V -0.705 H 0.318 l -0.283,0.453 v 0.123 H 0.386 Z M 0.164,-0.243 v -0.004 l 0.221,-0.351 h 0.004 v 0.355 z"
   style="fill-rule:nonzero"
   id="path10" />
        </g>
      </g>
    </g>
    
  </g>
<g
   aria-label="oh"
   id="text2125"
   style="font-size:1030.46px;line-height:1.25;font-family:Inter;-inkscape-font-specification:Inter;letter-spacing:-20.6092px;stroke-width:10.3046"><path
     d="m 1319.0244,1020.5676 q -76.1135,0 -133.5646,-36.22715 -57.0851,-36.22711 -89.287,-101.36271 -31.8359,-65.13561 -31.8359,-152.22704 0,-87.8233 31.8359,-153.32483 32.2019,-65.50154 89.287,-101.72865 57.4511,-36.22711 133.5646,-36.22711 76.1135,0 133.1987,36.22711 57.451,36.22711 89.287,101.72865 32.2019,65.50153 32.2019,153.32483 0,87.09143 -32.2019,152.22704 -31.836,65.1356 -89.287,101.36271 -57.0852,36.22715 -133.1987,36.22715 z m 0,-77.57728 q 57.817,0 95.1419,-29.64036 37.3249,-29.64036 55.2555,-77.94317 17.9306,-48.30281 17.9306,-104.65609 0,-56.35328 -17.9306,-105.02202 -17.9306,-48.66874 -55.2555,-78.67504 -37.3249,-30.00629 -95.1419,-30.00629 -57.817,0 -95.1419,30.00629 -37.3249,30.0063 -55.2555,78.67504 -17.9306,48.66874 -17.9306,105.02202 0,56.35328 17.9306,104.65609 17.9306,48.30281 55.2555,77.94317 37.3249,29.64036 95.1419,29.64036 z"
     id="path832" /><path
     d="m 1771.1964,670.73811 v 338.11969 h -86.3596 V 259.43236 h 86.3596 v 275.17965 h 7.3186 q 19.7602,-43.54572 59.2807,-69.16084 39.8864,-25.98106 106.1198,-25.98106 57.4511,0 100.6309,23.05361 43.1798,22.68769 66.9652,69.89271 24.1514,46.83909 24.1514,119.2933 v 357.14807 h -86.3595 V 657.56462 q 0,-66.96526 -34.7634,-103.5583 -34.3975,-36.95897 -95.5079,-36.95897 -42.4479,0 -76.1135,17.93059 -33.2996,17.93059 -52.6939,52.32805 -19.0284,34.39745 -19.0284,83.43212 z"
     id="path834" /></g></svg>
