<svg
   width="512"
   height="512"
   viewBox="0 0 512 512"
   version="1.1"
   id="svg30033"
   inkscape:version="1.1.2 (b8e25be833, 2022-02-05)"
   sodipodi:docname="nineMinecraftSquare.svg"
   xmlns:inkscape="http://www.inkscape.org/namespaces/inkscape"
   xmlns:sodipodi="http://sodipodi.sourceforge.net/DTD/sodipodi-0.dtd"
   xmlns="http://www.w3.org/2000/svg"
   xmlns:svg="http://www.w3.org/2000/svg">
  <sodipodi:namedview
     id="namedview30035"
     pagecolor="#ffffff"
     bordercolor="#999999"
     borderopacity="1"
     inkscape:pageshadow="0"
     inkscape:pageopacity="0"
     inkscape:pagecheckerboard="0"
     inkscape:document-units="mm"
     showgrid="true"
     inkscape:zoom="0.5253601"
     inkscape:cx="394.01546"
     inkscape:cy="442.55359"
     inkscape:window-width="1920"
     inkscape:window-height="1001"
     inkscape:window-x="-9"
     inkscape:window-y="-9"
     inkscape:window-maximized="1"
     inkscape:current-layer="layer1"
     inkscape:snap-bbox="true"
     inkscape:bbox-paths="true"
     inkscape:bbox-nodes="true"
     inkscape:snap-bbox-edge-midpoints="true"
     inkscape:snap-bbox-midpoints="true" />
  <defs
     id="defs30030" />
  <g
     inkscape:label="Layer 1"
     inkscape:groupmode="layer"
     id="layer1">
    <path
       id="rect10006-4-4-0-6"
       style="font-variation-settings:normal;vector-effect:none;fill:var(--color-brand);fill-opacity:1;fill-rule:evenodd;stroke:#000080;stroke-width:0;stroke-linecap:round;stroke-linejoin:round;stroke-miterlimit:4;stroke-dasharray:none;stroke-dashoffset:0;stroke-opacity:1;-inkscape-stroke:none;stop-color:#000000"
       d="M 125.98242 0 A 125.98423 125.98445 0 0 0 0 125.98242 L 0 629.92188 A 125.98423 125.98445 0 0 0 125.98242 755.90625 L 629.92383 755.90625 A 125.98423 125.98445 0 0 0 755.90625 629.92188 L 755.90625 125.98242 A 125.98423 125.98445 0 0 0 629.92383 0 L 125.98242 0 z M 125.98438 125.98633 L 377.95312 377.95508 L 503.9375 377.95508 L 503.9375 125.98633 L 629.92188 125.98633 L 629.92188 629.92383 L 377.95312 377.95508 L 251.96875 377.95508 L 251.96875 629.92383 L 125.98438 629.92383 L 125.98438 125.98633 z "
       transform="scale(0.26458333)" />
  </g>
</svg>
